<svg viewBox="0 0 16 15" fill="none" xmlns="http://www.w3.org/2000/svg">
<path d="M9.29997 1.11007L10.62 3.75007C10.8 4.11007 11.28 4.47007 11.68 4.53007L14.07 4.93007C15.6 5.19007 15.96 6.29007 14.86 7.39007L13 9.26007C12.69 9.57007 12.51 10.1801 12.61 10.6201L13.14 12.9301C13.56 14.7501 12.59 15.4601 10.98 14.5101L8.73997 13.1801C8.32997 12.9401 7.66997 12.9401 7.25997 13.1801L5.00997 14.5001C3.39997 15.4501 2.42997 14.7401 2.84997 12.9201L3.37997 10.6101C3.47997 10.1801 3.29997 9.57007 2.98997 9.25007L1.13997 7.40007C0.0399733 6.30007 0.399973 5.19007 1.92997 4.94007L4.31997 4.54007C4.71997 4.47007 5.19997 4.12007 5.37997 3.76007L6.69997 1.12007C7.40997 -0.319928 8.58997 -0.319928 9.29997 1.11007Z"/>
</svg>
