<svg xmlns="http://www.w3.org/2000/svg" xmlns:xlink="http://www.w3.org/1999/xlink" version="1.1" x="0px" y="0px" viewBox="0 0 96 120" enable-background="new 0 0 96 96" xml:space="preserve"><g display="none"><g display="inline" opacity="0.2"><g><path fill="#000000" stroke="#EC2227" stroke-width="0.5" stroke-miterlimit="10" d="M90.593,84.537     c0,3.331-2.727,6.058-6.057,6.058H11.651c-3.331,0-6.057-2.727-6.057-6.058V11.651c0-3.331,2.726-6.057,6.057-6.057h72.886     c3.33,0,6.057,2.726,6.057,6.057V84.537z"/><path fill="#000000" stroke="#EC2227" stroke-width="0.5" stroke-miterlimit="10" d="M20.738,94.594     c-3.073,0-5.589-2.564-5.589-5.703V7.295c0-3.136,2.516-5.701,5.589-5.701h54.541c3.074,0,5.588,2.565,5.588,5.701v81.596     c0,3.139-2.514,5.703-5.588,5.703H20.738z"/><path fill="#000000" stroke="#EC2227" stroke-width="0.5" stroke-miterlimit="10" d="M7.266,80.885     c-3.176,0-5.774-2.486-5.774-5.529V20.643c0-3.04,2.599-5.527,5.774-5.527h81.448c3.176,0,5.773,2.487,5.773,5.527v54.713     c0,3.043-2.598,5.529-5.773,5.529H7.266z"/></g><circle fill="#000000" stroke="#EC2227" stroke-width="0.5" stroke-miterlimit="10" cx="48" cy="48" r="19.363"/><circle fill="#000000" stroke="#EC2227" stroke-width="0.5" stroke-miterlimit="10" cx="48" cy="48" r="46.5"/><line fill="#000000" stroke="#EC2227" stroke-width="0.5" stroke-miterlimit="10" x1="0.008" y1="0.008" x2="95.992" y2="95.993"/><line fill="#000000" stroke="#EC2227" stroke-width="0.5" stroke-miterlimit="10" x1="95.992" y1="0.008" x2="0.008" y2="95.993"/></g></g><g><rect x="39.035" y="26.308" width="6.094" height="6.092"/><rect x="50.872" y="50.425" width="6.094" height="6.092"/><rect x="50.872" y="26.308" width="6.094" height="6.092"/><path d="M48.75,78.625h7.712V65.833H48.75V78.625z M49.749,70.946h1.5v2.764h-1.5V70.946z"/><rect x="50.872" y="38.367" width="6.094" height="6.092"/><rect x="39.035" y="38.367" width="6.094" height="6.092"/><path d="M72.825,78.625h4.613v-8.633h-4.613V78.625z M74.381,73.399h1.5v1.959h-1.5V73.399z"/><rect x="77.174" y="47.335" width="3.127" height="3.126"/><rect x="39.035" y="50.425" width="6.094" height="6.092"/><rect x="15.7" y="47.335" width="3.126" height="3.126"/><rect x="22.911" y="62.03" width="3.126" height="3.126"/><rect x="22.911" y="54.683" width="3.126" height="3.126"/><rect x="22.911" y="47.335" width="3.126" height="3.126"/><path d="M18.563,78.625h4.613v-8.633h-4.613V78.625z M20.12,73.399h1.5v1.959h-1.5V73.399z"/><rect x="15.7" y="62.03" width="3.126" height="3.126"/><path d="M11.347,78.625h5.716V68.492h7.613v10.133h5.715V41.893H11.347V78.625z M21.411,45.835h6.126v6.126h-6.126V45.835z    M21.411,53.183h6.126v6.126h-6.126V53.183z M21.411,60.53h6.126v6.126h-6.126V60.53z M14.2,45.835h6.126v6.126H14.2V45.835z    M14.2,53.183h6.126v6.126H14.2V53.183z M14.2,60.53h6.126v6.126H14.2V60.53z"/><rect x="77.174" y="62.03" width="3.127" height="3.126"/><path d="M39.539,78.625h7.711V65.833h-7.711V78.625z M44.752,70.946h1.5v2.764h-1.5V70.946z"/><rect x="15.7" y="54.683" width="3.126" height="3.126"/><path d="M31.891,40.393v38.231h6.148V64.333h19.923v14.291h6.147V40.393V17.375H31.891V40.393z M49.372,24.808h9.094V33.9h-9.094   V24.808z M49.372,36.867h9.094v9.092h-9.094V36.867z M49.372,48.925h9.094v9.092h-9.094V48.925z M37.535,24.808h9.094V33.9h-9.094   V24.808z M37.535,36.867h9.094v9.092h-9.094V36.867z M37.535,48.925h9.094v9.092h-9.094V48.925z"/><rect x="69.963" y="47.335" width="3.127" height="3.126"/><path d="M65.61,78.625h5.715V68.492h7.613v10.133h5.716V41.893H65.61V78.625z M75.674,45.835h6.127v6.126h-6.127V45.835z    M75.674,53.183h6.127v6.126h-6.127V53.183z M75.674,60.53h6.127v6.126h-6.127V60.53z M68.463,45.835h6.127v6.126h-6.127V45.835z    M68.463,53.183h6.127v6.126h-6.127V53.183z M68.463,60.53h6.127v6.126h-6.127V60.53z"/><rect x="69.963" y="62.03" width="3.127" height="3.126"/><rect x="69.963" y="54.683" width="3.127" height="3.126"/><rect x="77.174" y="54.683" width="3.127" height="3.126"/></g></svg>