<svg xmlns="http://www.w3.org/2000/svg" xmlns:xlink="http://www.w3.org/1999/xlink" version="1.1" x="0px" y="0px" viewBox="0 0 1000 1250" style="enable-background:new 0 0 1000 1000;" xml:space="preserve"><g><g><path d="M663.1,713.2c28.7,1.1,50.6-4,51.6-13c1.2-10.7-27.5-22.8-64.2-27c-8.7-1-17-1.5-24.6-1.4l-24-26.8    c24.9,0,43.2-5,44.1-13.2c1.2-10.7-27.5-22.8-64.2-27c-5.9-0.7-11.7-1.1-17.2-1.3l-37.9-42.2l155-1l157.4-117    c7.5-5.6,5.3-17.4-3.8-19.9l-22.4-6.1c-27.7-0.2-6.7,17.7-6.7,17.7l-75,27.2l-41,13.7l-261.7-69.5l-13.7-36.8    c14.8,0.8,25.9-2.4,27.6-8.9c2.4-9.4-15.2-22-39.2-28.2c-0.9-0.2-1.7-0.4-2.6-0.6l-30.8-77.3l-33.2-5.8    c-5.6,54.1,20.5,141.3,20.5,141.3C264.4,367.3,212.8,379,212.8,379l-5.5,1.4c0,0,0,0,0,0c5.3,27.6,33.2,41.7,33.2,41.7l-15.8,18.1    c-33.6-13.3-45.3-37-49.4-51.3l-7.3,2c-65.3,18.6-56.9,34.3-48.7,40.9c3.8,3.1,7.4,6.2,10.9,9.5c51,46.6,295.8,100.8,295.8,100.8    l221.9,208l48,1.5L663.1,713.2z M593.7,506l14.9,3c1.5,0.3,2.5,1.8,2.2,3.3l-2.9,14.9c-0.3,1.5-1.8,2.5-3.4,2.2l-14.9-2.9    c-1.5-0.3-2.5-1.8-2.2-3.3l2.9-14.9C590.7,506.7,592.2,505.7,593.7,506z M550.8,497.5l14.9,3c1.5,0.3,2.5,1.8,2.2,3.3l-2.9,14.9    c-0.3,1.5-1.8,2.5-3.3,2.2l-14.9-2.9c-1.5-0.3-2.5-1.8-2.2-3.3l2.9-14.9C547.8,498.2,549.3,497.2,550.8,497.5z M347.3,478.5    l-14.9-2.9c-1.5-0.3-2.5-1.8-2.2-3.3l2.9-14.9c0.3-1.6,1.8-2.6,3.4-2.3l14.9,2.9c1.6,0.3,2.6,1.8,2.3,3.4l-3,14.9    C350.3,477.8,348.8,478.8,347.3,478.5z M390.2,487l-14.9-2.9c-1.6-0.3-2.6-1.8-2.3-3.4l2.9-14.9c0.3-1.6,1.8-2.6,3.4-2.3l14.9,2.9    c1.5,0.3,2.5,1.8,2.2,3.4l-2.9,14.9C393.2,486.3,391.7,487.3,390.2,487z M433,495.5l-14.9-2.9c-1.5-0.3-2.5-1.8-2.2-3.3l2.9-14.9    c0.3-1.6,1.8-2.6,3.4-2.3l14.9,3c1.6,0.3,2.6,1.8,2.3,3.4l-2.9,14.9C436.1,494.8,434.6,495.8,433,495.5z M475.9,504L461,501    c-1.6-0.3-2.6-1.8-2.3-3.4l3-14.9c0.3-1.6,1.8-2.6,3.4-2.3l14.9,3c1.5,0.3,2.5,1.8,2.2,3.3l-2.9,14.9    C479,503.3,477.4,504.3,475.9,504z M518.8,512.5l-14.9-2.9c-1.5-0.3-2.5-1.8-2.2-3.3l2.9-14.9c0.3-1.6,1.8-2.6,3.4-2.3l14.9,3    c1.5,0.3,2.5,1.8,2.2,3.3l-2.9,14.9C521.8,511.8,520.3,512.8,518.8,512.5z"/></g><path d="M606.6,583.9c0,0,3.1-0.2,8.5-0.5c5.4-0.3,13.2-0.6,22.4-1.1c4.6-0.2,9.7-0.4,15-0.7   c5.3-0.2,10.9-0.4,16.7-0.7c5.8-0.2,11.8-0.5,17.9-0.7c6.1-0.2,12.3-0.4,18.5-0.6c6.2-0.2,12.4-0.5,18.5-0.8   c6.1-0.3,12.1-0.6,17.9-0.6c5.8,0,11.4,0.1,16.7,0.4c5.3,0.2,10.4,0.6,15,0.9c4.6,0.4,8.9,0.8,12.7,1.2c1.9,0.2,3.7,0.4,5.3,0.6   c1.6,0.2,3.1,0.4,4.5,0.6c2.7,0.4,4.8,0.8,6.3,1c1.5,0.3,2.2,0.4,2.2,0.4l0,1.1c0,0-0.8,0.2-2.2,0.4c-1.5,0.3-3.6,0.6-6.3,1.1   c-1.4,0.2-2.9,0.4-4.5,0.7c-1.6,0.2-3.4,0.4-5.3,0.7c-3.8,0.5-8,0.9-12.7,1.3c-4.6,0.4-9.7,0.7-15,1c-5.3,0.3-10.9,0.4-16.7,0.4   c-5.8,0-11.8-0.3-17.9-0.6c-6.1-0.3-12.3-0.6-18.5-0.8c-6.2-0.2-12.4-0.4-18.5-0.5c-6.1-0.2-12.1-0.4-17.9-0.6   c-5.8-0.2-11.4-0.4-16.7-0.6c-5.3-0.2-10.4-0.4-15-0.6c-9.3-0.4-17-0.7-22.4-1c-5.4-0.3-8.5-0.4-8.5-0.4L606.6,583.9z"/><path d="M747.3,616.6c0,0,8.1-0.7,20.1-1.5c3-0.2,6.3-0.4,9.8-0.7c3.5-0.2,7.1-0.4,10.9-0.7   c3.8-0.2,7.7-0.5,11.6-0.7c4-0.2,8-0.4,12-0.6c4-0.2,8.1-0.5,12-0.8c4-0.3,7.9-0.6,11.6-0.6c3.8,0,7.4,0.1,10.9,0.4   c3.5,0.2,6.7,0.6,9.8,0.9c6,0.7,11.1,1.7,14.6,2.5c1.8,0.4,3.1,0.8,4.1,1c0.9,0.3,1.4,0.4,1.4,0.4l0,1.1c0,0-0.5,0.2-1.4,0.4   c-0.9,0.3-2.3,0.6-4.1,1.1c-3.5,0.8-8.6,1.8-14.6,2.6c-3,0.4-6.3,0.7-9.8,1c-3.5,0.3-7.1,0.4-10.9,0.4c-3.8,0-7.7-0.3-11.6-0.6   c-4-0.3-8-0.6-12-0.8c-4-0.2-8.1-0.4-12-0.6c-4-0.2-7.9-0.4-11.6-0.6c-3.8-0.2-7.4-0.4-10.9-0.6c-3.5-0.2-6.7-0.4-9.8-0.6   c-12.1-0.8-20.1-1.5-20.1-1.5L747.3,616.6z"/><path d="M459.5,389.9c0,0,3.1,0.5,8.4,1.5c5.3,0.9,13,2.3,22.1,4c4.6,0.8,9.5,1.7,14.8,2.7c5.2,1,10.8,2,16.5,3.1   c5.7,1.1,11.6,2.2,17.6,3.4c6,1.2,12.1,2.4,18.1,3.6c6.1,1.2,12.2,2.3,18.2,3.4c6,1,11.9,2.2,17.6,3.4c5.7,1.3,11.1,2.7,16.2,4.1   c5.1,1.4,10,2.9,14.4,4.3c4.4,1.4,8.5,2.8,12.1,4c1.8,0.6,3.5,1.3,5,1.8c1.5,0.6,3,1.1,4.2,1.6c2.6,1,4.5,1.8,5.9,2.4   c1.4,0.6,2.1,0.9,2.1,0.9l-0.3,1.1c0,0-0.8,0-2.3-0.1c-1.5-0.1-3.6-0.2-6.4-0.4c-1.4-0.1-2.9-0.2-4.5-0.4c-1.6-0.2-3.4-0.4-5.3-0.5   c-3.8-0.4-8-0.9-12.6-1.6c-4.6-0.7-9.6-1.5-14.8-2.4c-5.2-0.9-10.7-2-16.4-3.3c-5.6-1.3-11.4-2.9-17.3-4.6   c-5.9-1.7-11.8-3.3-17.8-4.9c-6-1.6-12-3.1-17.9-4.7c-5.9-1.5-11.7-3.1-17.3-4.6c-5.6-1.5-11-3-16.2-4.4c-5.1-1.4-10-2.8-14.5-4   c-9-2.5-16.4-4.5-21.7-6c-5.2-1.5-8.2-2.3-8.2-2.3L459.5,389.9z"/><path d="M603.9,389.1c0,0,8,1.1,20,3c3,0.5,6.2,1,9.6,1.6c3.4,0.6,7,1.2,10.8,1.8c3.7,0.6,7.6,1.3,11.5,2   c3.9,0.7,7.9,1.4,11.8,2.1c4,0.7,8,1.3,11.9,1.9c3.9,0.6,7.8,1.2,11.5,2c3.7,0.8,7.2,1.8,10.5,2.8c3.3,1,6.4,2.1,9.3,3.1   c5.7,2.1,10.4,4.1,13.7,5.7c1.6,0.8,2.9,1.5,3.8,1.9c0.9,0.5,1.3,0.7,1.3,0.7l-0.3,1.1c0,0-0.5,0.1-1.5,0.1c-1,0.1-2.4,0.1-4.2,0.1   c-3.6,0-8.7-0.2-14.8-0.8c-3-0.3-6.3-0.7-9.7-1.2c-3.4-0.5-7-1.2-10.7-2c-3.7-0.9-7.4-2-11.2-3.2c-3.8-1.2-7.7-2.4-11.5-3.4   c-3.9-1.1-7.8-2.2-11.6-3.2c-3.8-1.1-7.6-2.2-11.2-3.2c-3.6-1.1-7.1-2.1-10.5-3.1c-3.3-1-6.5-1.9-9.4-2.8   c-11.6-3.5-19.3-5.9-19.3-5.9L603.9,389.1z"/></g></svg>