<svg xmlns="http://www.w3.org/2000/svg" data-name="Layer 1" viewBox="0 0 100 125" x="0px" y="0px"><title>Artboard 42</title><path d="M72.94,12.15c-1.79-.57-3.54-1.07-5.27-1.51V5.07a2.85,2.85,0,0,0-2.36-2.82,94.18,94.18,0,0,0-30.62,0,2.85,2.85,0,0,0-2.37,2.82v5.57c-1.73.44-3.48.94-5.27,1.51-5.1,1.63-8.53,6.4-8.53,12.7V70.36c0-.65,0-.35,0-.06A11.88,11.88,0,0,0,28.3,80.94l-7.2,11.67a4.36,4.36,0,1,0,7.72,4.05l2.42-3.59H68.77l2.42,3.59a4.36,4.36,0,0,0,7.72-4.05L71.7,80.94A11.88,11.88,0,0,0,81.44,70.3c0-.29,0-.59,0,.06V24.85C81.47,18.55,78,13.78,72.94,12.15Zm-31.65-.08a1.3,1.3,0,0,1,1.17-1.24,51.86,51.86,0,0,1,15.09,0,1.3,1.3,0,0,1,1.17,1.24v5.1a1.33,1.33,0,0,1-1.4,1.25H42.69a1.33,1.33,0,0,1-1.4-1.25ZM29.08,63.3a6,6,0,1,1,6,6A6,6,0,0,1,29.08,63.3ZM34.9,86.1,38,81.17H62L65.1,86.1Zm30-16.83a6,6,0,1,1,6-6A6,6,0,0,1,64.94,69.28Zm6.44-38.12L67.73,46.66a2.56,2.56,0,0,1-2.5,2H34.78a2.56,2.56,0,0,1-2.5-2L28.62,31.16a2.33,2.33,0,0,1,2.28-2.84H69.1A2.33,2.33,0,0,1,71.38,31.16Z"/></svg>